<svg xmlns="http://www.w3.org/2000/svg" viewBox="0 0 24 24" fill="#ffffff" aria-hidden="true"><path d="M16.125 1.32c.45 1.02-.27 2.16-.98 2.88-.72.75-1.92 1.32-2.91 1.05-.38-1.02.1-2.1.95-2.85.78-.72 2.04-1.23 2.94-1.08zm3.27 9.57c-.03 3.03 2.64 4.05 2.67 4.06-.02.09-.42 1.44-1.38 2.85-.83 1.2-1.7 2.4-3.06 2.42-1.34.03-1.77-.8-3.3-.8-1.52 0-2 .78-3.26.83-1.31.05-2.3-1.32-3.15-2.5-1.71-2.48-3.02-7-1.26-10.05.87-1.52 2.43-2.48 4.12-2.51 1.28-.02 2.5.87 3.28.87.79 0 2.26-1.07 3.81-.91.65.03 2.48.26 3.65 1.98-.09.06-2.18 1.28-2.16 3.81z"/></svg>
